<svg width="512" height="512" viewBox="0 0 512 512" fill="none" xmlns="http://www.w3.org/2000/svg">
<path d="M16 53.5C16 32.7893 32.7893 16 53.5 16H458.5C479.211 16 496 32.7893 496 53.5V458.5C496 479.211 479.211 496 458.5 496H53.5C32.7893 496 16 479.211 16 458.5V53.5Z" fill="white"/>
<path fill-rule="evenodd" clip-rule="evenodd" d="M414.231 431.73C413.027 432.935 412.725 434.742 413.779 436.097L451.665 473.983C453.116 475.433 453.132 477.78 451.701 479.25L449.432 481.581C447.974 483.08 445.572 483.096 444.093 481.617L406.402 443.926C405.197 442.27 402.939 442.119 401.433 443.474L373.58 469.822C371.773 471.479 368.912 470.726 368.159 468.317L355.813 427.966C326.303 445.13 292.126 455.067 255.69 455.067C146.232 455.067 57.25 366.086 57.25 256.627C57.25 147.169 146.232 58.1875 255.69 58.1875C365.148 58.1875 454.28 147.169 454.28 256.627C454.28 304.054 437.568 347.717 409.714 381.895L443.44 397.854C445.548 398.908 446 401.618 444.343 403.274L414.231 431.73ZM255.69 438.054C155.567 438.054 74.2634 356.901 74.2634 256.627C74.2634 156.354 155.567 75.3515 255.69 75.3515C355.813 75.5021 436.966 156.655 437.116 256.778C437.116 301.645 420.856 342.749 393.755 374.517L336.843 347.567C334.283 346.362 331.422 348.771 332.326 351.481L350.694 411.405C322.991 428.267 290.62 438.054 255.69 438.054ZM378.699 450.551C376.892 452.207 374.031 451.454 373.278 449.045L364.997 422.245L359.728 405.232L349.189 371.054C347.382 363.978 347.382 363.978 353.705 367.14L386.076 382.497L402.186 390.175L424.62 400.865C426.728 401.919 427.179 404.629 425.523 406.285L378.699 450.551ZM156.47 263.403H248.463C249.667 263.403 250.721 262.5 250.721 261.144V147.922C250.721 146.718 249.667 145.664 248.463 145.664H230.245C229.04 145.664 227.986 146.718 227.986 147.922V167.194C227.986 168.098 227.384 169.001 226.481 169.302C187.786 183.304 162.191 212.363 156.018 250.153L154.211 260.843V261.144C154.211 262.349 155.265 263.403 156.47 263.403ZM225.577 240.668H185.076C184.9 240.668 184.724 240.616 184.577 240.574L184.577 240.574C184.474 240.543 184.386 240.518 184.324 240.518C183.119 240.066 182.517 238.711 182.968 237.506C191.701 214.922 209.317 201.974 224.674 194.747C224.975 194.596 225.276 194.596 225.577 194.596C226.782 194.596 227.836 195.65 227.836 196.855V238.41C227.836 239.614 226.782 240.668 225.577 240.668ZM157.524 286.138C166.407 333.414 207.661 367.742 255.69 367.742C303.117 367.591 344.069 334.317 353.856 287.794L356.114 276.803V276.351C356.114 275.147 355.06 274.093 353.856 274.093L157.825 272.437H157.373C156.169 272.738 155.265 273.942 155.566 275.147L157.524 286.138ZM185.076 298.032C185.076 296.827 185.98 295.774 187.335 295.774L323.744 296.978C324.045 296.978 324.346 296.978 324.647 297.129C325.851 297.58 326.303 298.935 325.851 300.14C318.022 317.153 304.171 330.854 287.007 338.382C248.011 355.546 202.391 337.931 185.227 298.935C185.076 298.634 185.076 298.333 185.076 298.032ZM355.061 263.403H263.068C261.863 263.403 260.809 262.349 260.809 261.144V147.922C260.809 146.718 261.863 145.664 263.068 145.664H281.286C282.49 145.664 283.544 146.718 283.544 147.922V167.194C283.544 168.098 284.146 169.001 285.05 169.302C323.744 183.304 349.339 212.363 355.512 250.153L357.319 260.843C357.47 262.048 356.717 263.252 355.512 263.403H355.061ZM285.953 240.668H326.454C327.809 240.668 328.712 239.614 328.712 238.41C328.712 238.109 328.712 237.807 328.562 237.657C319.679 215.073 302.214 202.275 286.856 194.897C285.652 194.446 284.297 194.897 283.845 196.102C283.695 196.403 283.695 196.704 283.695 197.005V238.41C283.544 239.614 284.598 240.518 285.953 240.668Z" fill="#1E1E1C"/>
</svg>
